HIERARCHY
ROOT pelvis
{
  OFFSET 0 100 0
  CHANNELS 6 Xposition Yposition Zposition Zrotation Xrotation Yrotation
  JOINT pelvis_right_femur
  {
    OFFSET -10.78128 -3.44521 -0.5502486
    CHANNELS 3 Zrotation Xrotation Yrotation
    JOINT right_femur_tibia
    {
      OFFSET -0.8047443 -44.0398 -0.1307829
      CHANNELS 3 Zrotation Xrotation Yrotation
      JOINT right_tibia_foot
      {
        OFFSET 3.006224 -47.83518 -5
        CHANNELS 3 Zrotation Xrotation Yrotation
        End Site
        {
          OFFSET 0 -5 15
        }
      }
    }
  }
  JOINT pelvis_left_femur
  {
    OFFSET 10.78128 -3.44521 -0.5502486
    CHANNELS 3 Zrotation Xrotation Yrotation
    JOINT left_femur_tibia
    {
      OFFSET 0.8047443 -44.0398 -0.1307829
      CHANNELS 3 Zrotation Xrotation Yrotation
      JOINT left_tibia_foot
      {
        OFFSET -4.370144 -48.10324 -4.275266
        CHANNELS 3 Zrotation Xrotation Yrotation
        End Site
        {
          OFFSET 0 -5 15
        }
      }
    }
  }
  JOINT pelvis_spine1
  {
    OFFSET 0 6.468898 -3.129235
    CHANNELS 3 Zrotation Xrotation Yrotation
    JOINT spine1
    {
      OFFSET 0 23.15396 4.99043
      CHANNELS 3 Zrotation Xrotation Yrotation
      JOINT spine2
      {
        OFFSET 0 20.79997 -5.064912
        CHANNELS 3 Zrotation Xrotation Yrotation
        JOINT neck
        {
          OFFSET 0 14.38658 9.616178
          CHANNELS 3 Zrotation Xrotation Yrotation
          End Site
          {
            OFFSET 0 20 0
          }
        }
      }
      JOINT right_manubrium
      {
        OFFSET -5.722621 16.35077 3.967754
        CHANNELS 3 Zrotation Xrotation Yrotation
        JOINT right_clavicle
        {
          OFFSET -13.16364 1.694482 -4.693211
          CHANNELS 3 Zrotation Xrotation Yrotation
          JOINT right_humerus
          {
            OFFSET -28.5034 -0.3100689 -2.792744
            CHANNELS 3 Zrotation Xrotation Yrotation
            JOINT right_radius
            {
              OFFSET -25.15693 0.02248979 -1.271978
              CHANNELS 3 Zrotation Xrotation Yrotation
              End Site
              {
                OFFSET -15 0 0
              }
            }
          }
        }
      }
      JOINT left_manubrium
      {
        OFFSET 5.722621 16.35077 3.967754
        CHANNELS 3 Zrotation Xrotation Yrotation
        JOINT left_clavicle
        {
          OFFSET 13.16364 1.694482 -4.693211
          CHANNELS 3 Zrotation Xrotation Yrotation
          JOINT left_humerus
          {
            OFFSET 29.39168 -1.063119 -2.237045
            CHANNELS 3 Zrotation Xrotation Yrotation
            JOINT left_radius
            {
              OFFSET 24.59957 -0.9528479 0.9047498
              CHANNELS 3 Zrotation Xrotation Yrotation
              End Site
              {
                OFFSET 15 -0 -0
              }
            }
          }
        }
      }
    }
  }
}
MOTION
Frames: 9
Frame Time: 0.0416666666667
352.4528 93.10796 2507.654 -2.876149 0.02383372 13.18374 9.43944 -23.46574 3.01895 -0 16.72016 -0 -10.81323 -1.220743 -1.139407 -3.069186 9.042341 -9.761154 -0 46.12514 -0 -0.2252272 -7.762465 10.0047 -0.8624116 -0.9250762 3.776843 -1.032264 13.3339 -5.034645 0.9642287 23.52534 6.371663 6.163389 -16.08835 4.482178 2.144565 -18.18999 11.82637 88.3583 25.36733 -16.3812 -0 0 11.72347 -24.34444 10.93366 9.551531 7.773771 -25.07236 -8.78776 -88.66606 11.5064 14.72533 0 0 -14.51888 17.28031 16.02785 -9.446003
353.7902 94.23552 2513.345 -2.223926 -1.519196 12.58357 8.997048 -18.00247 2.677863 -0 16.57996 -0 -11.60905 -2.474015 -1.227081 -2.536825 3.821021 -8.662287 -0 55.27375 -0 -0.2998792 -4.744856 9.323185 -0.6481092 -1.082905 4.087501 -1.078494 13.70828 -4.886496 0.9740595 23.43091 6.217094 6.059393 -16.09305 4.383321 2.066153 -18.9063 11.97846 88.10454 24.427 -15.78818 -0 0 12.7197 -24.68862 11.24301 9.982557 7.394172 -24.99318 -8.934505 -89.67664 11.62656 16.59701 0 0 -12.65435 16.62555 16.23597 -8.472821
355.0504 95.49781 2518.741 -1.165262 -3.044663 11.90495 8.069742 -12.06691 2.086336 -0 15.09534 -0 -12.06009 -3.80955 -1.197687 -2.074838 -2.329342 -7.680133 -0 61.48134 -0 0.03555321 -3.056945 9.33979 -0.3499159 -1.369167 4.498794 -1.093693 14.23854 -4.793241 0.9578548 23.2186 5.987382 5.889976 -16.11846 4.211144 1.921413 -19.89781 12.19031 87.87607 23.06439 -15.2326 -0 0 14.06134 -25.13349 11.74357 10.53192 6.94627 -25.04015 -9.163569 -90.86053 11.63853 18.92728 0 0 -10.75523 15.81597 16.43424 -7.2758
356.2202 96.6605 2523.842 0.0004385137 -4.333061 11.29512 7.027921 -6.151802 1.475386 -0 12.78863 -0 -12.06933 -5.012162 -1.111147 -1.438874 -8.665011 -6.608747 -0 63.12016 -0 0.6883945 -2.406335 10.03089 0.02272005 -1.782996 5.00548 -1.054914 14.89988 -4.770665 0.9198909 22.86367 5.67023 5.624103 -16.16548 3.984797 1.726469 -21.16574 12.45783 87.66063 21.37429 -14.69739 -0 0 15.77832 -25.60566 12.4856 11.19902 6.418078 -25.17993 -9.445816 -92.15718 11.51537 21.67759 0 0 -8.940504 14.84498 16.57317 -5.855974
357.3235 97.45061 2528.702 0.9108552 -5.248681 10.78661 6.266777 -0.7778449 1.02038 -0 10.31072 -0 -11.6466 -6.074124 -1.018936 -0.3325418 -14.41535 -5.240145 -0 59.26181 -0 1.465926 -2.228995 11.2132 0.4444648 -2.300761 5.582421 -0.9461203 15.63391 -4.822012 0.8695179 22.36608 5.263666 5.239202 -16.22407 3.735907 1.511671 -22.66144 12.76515 87.43201 19.52153 -14.14329 -0 0 17.84661 -26.02356 13.49171 11.97152 5.810986 -25.34849 -9.730595 -93.47675 11.25618 24.72844 0 0 -7.319859 13.7284 16.61655 -4.251179
358.4158 97.64299 2533.4 1.272699 -5.780942 10.32152 6.05879 3.663336 0.7744314 -0 8.237694 -0 -10.92468 -7.34496 -0.9590457 1.370194 -18.93138 -3.522894 -0 50.28445 -0 2.148047 -2.091652 12.5314 0.8700074 -2.869336 6.178451 -0.7725214 16.34172 -4.924181 0.8204593 21.76836 4.790362 4.740002 -16.27451 3.508549 1.315294 -24.27029 13.08013 87.15299 17.73191 -13.50622 -0 0 20.15793 -26.33005 14.71907 12.82556 5.15498 -25.45318 -9.94774 -94.71611 10.90264 27.86741 0 0 -5.948577 12.51578 16.56332 -2.550967
359.5736 97.17783 2538.035 1.000391 -6.010122 9.822735 6.40229 7.052875 0.7203358 -0 7.064573 -0 -10.11625 -9.322032 -0.9775244 3.418818 -21.81978 -1.684384 -0 38.17956 -0 2.626205 -1.870322 13.58559 1.239255 -3.412069 6.722189 -0.5694382 16.89786 -5.022728 0.7878024 21.1582 4.30648 4.172125 -16.29891 3.353306 1.168702 -25.82236 13.35618 86.7884 16.24762 -12.71298 -0 0 22.5143 -26.52264 16.03364 13.72947 4.51456 -25.394 -10.02242 -95.78882 10.53893 30.81905 0 0 -4.795597 11.29003 16.45572 -0.8903316
360.8779 96.20208 2542.749 0.2888064 -6.039862 9.245765 6.953596 9.57805 0.8332214 -0 7.173656 -0 -9.430372 -12.09162 -1.105279 5.21131 -23.05206 -0.2073264 -0 25.96462 -0 2.925224 -1.622653 14.16429 1.49485 -3.850224 7.14328 -0.3938009 17.19015 -5.0476 0.7834612 20.64482 3.891055 3.615487 -16.29384 3.312501 1.081536 -27.1362 13.544 86.32381 15.25452 -11.71729 -0 0 24.66673 -26.65443 17.22997 14.64615 3.97293 -25.10181 -9.903008 -96.65183 10.26533 33.31499 0 0 -3.759216 10.15017 16.36181 0.5835495
362.3999 94.98185 2547.706 -0.4692265 -5.974699 8.591478 7.181259 11.61143 1.068504 -0 8.706331 -0 -9.008476 -14.96492 -1.296715 6.120279 -22.93667 0.3922592 -0 16.31592 -0 3.060573 -1.403939 14.37295 1.604407 -4.12974 7.399141 -0.2975242 17.16729 -4.946605 0.8122181 20.31788 3.614352 3.154435 -16.27097 3.402121 1.04049 -28.07646 13.61098 85.77767 14.81968 -10.53785 -0 0 26.38918 -26.79513 18.10466 15.52889 3.597326 -24.57208 -9.588136 -97.3085 10.15791 35.17057 0 0 -2.732443 9.183753 16.34013 1.756467
